<svg width="40" height="40" viewBox="0 0 40 40" fill="none" xmlns="http://www.w3.org/2000/svg">
<circle cx="20" cy="20" r="20" fill="#5718FF" fill-opacity="0.1"/>
<path d="M21 19C22.1046 19 23 18.1046 23 17C23 15.8954 22.1046 15 21 15C19.8954 15 19 15.8954 19 17C19 18.1046 19.8954 19 21 19Z" fill="#5718FF"/>
<path d="M19 19C20.1046 19 21 18.1046 21 17C21 15.8954 20.1046 15 19 15C17.8954 15 17 15.8954 17 17C17 18.1046 17.8954 19 19 19Z" fill="#5718FF"/>
<path d="M25 23C25 24.6569 23.6569 26 22 26H18C16.3431 26 15 24.6569 15 23V22C15 20.3431 16.3431 19 18 19H22C23.6569 19 25 20.3431 25 22V23Z" fill="#5718FF"/>
<circle cx="17" cy="15" r="1" fill="#5718FF"/>
<circle cx="23" cy="15" r="1" fill="#5718FF"/>
</svg>
