<svg width="40" height="40" viewBox="0 0 40 40" fill="none" xmlns="http://www.w3.org/2000/svg">
<circle cx="20" cy="20" r="20" fill="#FF3366" fill-opacity="0.1"/>
<path d="M20 15C21.6569 15 23 16.3431 23 18C23 19.6569 21.6569 21 20 21C18.3431 21 17 19.6569 17 18C17 16.3431 18.3431 15 20 15Z" fill="#FF3366"/>
<path d="M17 22H18V24H17V22Z" fill="#FF3366"/>
<path d="M19 22H20V24H19V22Z" fill="#FF3366"/>
<path d="M21 22H22V24H21V22Z" fill="#FF3366"/>
<path d="M23 22H24V24H23V22Z" fill="#FF3366"/>
<path d="M16 25H24V26H16V25Z" fill="#FF3366"/>
</svg>
